<svg width="512" height="512" viewBox="0 0 512 512" fill="none" xmlns="http://www.w3.org/2000/svg">
<path d="M0 0H512V512H0V0Z" fill="black"/>
<path fill-rule="evenodd" clip-rule="evenodd" d="M344.682 199.019L223.782 336.039L166.312 272.323L182.058 258.12L223.608 304.187L328.783 184.99L344.682 199.019Z" fill="white"/>
<path fill-rule="evenodd" clip-rule="evenodd" d="M165.331 356.593L173.738 363.053C182.983 370.157 193.175 376.083 204.088 380.608L213.881 384.67L205.759 404.257L195.966 400.196C183.317 394.951 171.515 388.087 160.818 379.867L152.411 373.407L165.331 356.593Z" fill="white"/>
<path fill-rule="evenodd" clip-rule="evenodd" d="M255.495 122.204C249.615 122.204 243.829 122.582 238.157 123.312L227.642 124.666L224.933 103.636L235.449 102.281C242.016 101.436 248.708 101 255.495 101C341.379 101 411.001 170.619 411.001 256.5C411.001 342.38 341.379 411.999 255.495 411.999C248.542 411.999 241.691 411.542 234.97 410.656L224.459 409.269L227.233 388.247L237.744 389.633C243.547 390.399 249.473 390.795 255.495 390.795C329.669 390.795 389.797 330.668 389.797 256.5C389.797 182.331 329.669 122.204 255.495 122.204Z" fill="white"/>
<path d="M213.882 128.33L204.088 132.391C193.175 136.917 182.983 142.842 173.738 149.946L165.331 156.407L152.411 139.593L160.817 133.133C171.515 124.912 183.317 118.049 195.966 112.804L205.76 108.743L213.882 128.33Z" fill="white"/>
<path d="M155.395 166.342L148.935 174.749C141.83 183.994 135.905 194.185 131.379 205.097L127.318 214.891L107.731 206.768L111.792 196.974C117.037 184.327 123.901 172.525 132.122 161.828L138.582 153.421L155.395 166.342Z" fill="white"/>
<path d="M123.697 228.442L122.326 238.955C120.831 250.427 120.831 262.572 122.326 274.043L123.697 284.557L102.67 287.298L101.3 276.785C99.5667 263.493 99.5668 249.505 101.3 236.214L102.671 225.701L123.697 228.442Z" fill="white"/>
<path d="M127.318 298.108L131.379 307.902C135.905 318.815 141.83 329.006 148.935 338.251L155.395 346.657L138.582 359.578L132.122 351.171C123.901 340.475 117.037 328.673 111.792 316.024L107.731 306.231L127.318 298.108Z" fill="white"/>
</svg>
